# xmcd
#
# Track frame offsets:
# 150
# 103751
# 127489
# 141902
# 155253
# 177105
# 187981
#
# Disc length: 2736 seconds
#
# Revision: 1
# Processed by: cddbd v1.5.2PL0 Copyright (c) Steve Scherf et al.
# Submitted via: CedeCatalogueitor 2.6.0.6 http://personales.ya.com/cdcatalogueitor
#
DISCID=600aae07
DTITLE=John Mayall - Bare Wires
DYEAR=1968
DGENRE=
TTITLE0=Barewires Suite
TTITLE1=I´m A Stranger
TTITLE2=No Replay
TTITLE3=Harley Quits
TTITLE4=Killing Time
TTITLE5=She´s Too Young
TTITLE6=Sandy
EXTD=
EXTT0=
EXTT1=
EXTT2=
EXTT3=
EXTT4=
EXTT5=
EXTT6=
PLAYORDER=
